<svg width="76" height="76" viewBox="0 0 76 76" fill="none" xmlns="http://www.w3.org/2000/svg">
<path d="M0.5 32.0625V6.75C0.5 5.08333 1.125 3.625 2.375 2.375C3.625 1.125 5.08333 0.5 6.75 0.5H69.25C70.9167 0.5 72.375 1.125 73.625 2.375C74.875 3.625 75.5 5.08333 75.5 6.75V35.6042L66.8542 26.9583C66.5069 26.6111 66.1597 26.3681 65.8125 26.2292C65.4653 26.0903 65.0833 26.0208 64.6667 26.0208C64.25 26.0208 63.8681 26.0903 63.5208 26.2292C63.1736 26.3681 62.8264 26.6111 62.4792 26.9583L46.8542 42.5833L31.3333 27.0625C30.9861 26.7153 30.6389 26.4722 30.2917 26.3333C29.9444 26.1944 29.5625 26.125 29.1458 26.125C28.7292 26.125 28.3472 26.1944 28 26.3333C27.6528 26.4722 27.3056 26.7153 26.9583 27.0625L11.2292 42.7917L0.5 32.0625ZM6.75 75.5C5.08333 75.5 3.625 74.875 2.375 73.625C1.125 72.375 0.5 70.9167 0.5 69.25V40.9167L9.04167 49.4583C9.38889 49.8056 9.73611 50.0486 10.0833 50.1875C10.4306 50.3264 10.8125 50.3958 11.2292 50.3958C11.6458 50.3958 12.0278 50.3264 12.375 50.1875C12.7222 50.0486 13.0694 49.8056 13.4167 49.4583L29.1458 33.7292L44.6667 49.25C45.0139 49.5972 45.3611 49.8403 45.7083 49.9792C46.0556 50.1181 46.4375 50.1875 46.8542 50.1875C47.2708 50.1875 47.6528 50.1181 48 49.9792C48.3472 49.8403 48.6944 49.5972 49.0417 49.25L64.6667 33.625L75.5 44.4583V69.25C75.5 70.9167 74.875 72.375 73.625 73.625C72.375 74.875 70.9167 75.5 69.25 75.5H6.75Z" fill="#45494C"/>
</svg>
