<svg width="100" height="100" viewBox="0 0 100 100" fill="none" xmlns="http://www.w3.org/2000/svg">
<mask id="mask0_123_665" style="mask-type:alpha" maskUnits="userSpaceOnUse" x="0" y="0" width="100" height="100">
<rect width="100" height="100" fill="#45494C"/>
</mask>
<g mask="url(#mask0_123_665)">
<path d="M15.3126 79.1668C12.6737 79.1668 10.6078 78.2814 9.11472 76.5106C7.62166 74.7397 7.08347 72.2918 7.50013 69.1668L12.5001 34.271C13.0557 30.5904 14.7744 27.4307 17.6564 24.7918C20.5383 22.1529 23.8196 20.8335 27.5001 20.8335H72.6043C76.2849 20.8335 79.5661 22.1529 82.4481 24.7918C85.33 27.4307 87.0487 30.5904 87.6043 34.271L92.5001 69.1668C92.9168 72.2918 92.3786 74.7397 90.8856 76.5106C89.3925 78.2814 87.3265 79.1668 84.6876 79.1668C83.0904 79.1668 81.7363 78.9064 80.6251 78.3856C79.514 77.8647 78.5765 77.2224 77.8126 76.4585L66.9793 65.6252H33.021L22.1876 76.4585C21.4237 77.2224 20.4862 77.8647 19.3751 78.3856C18.264 78.9064 16.9099 79.1668 15.3126 79.1668ZM72.9168 54.1668C74.0279 54.1668 75.0001 53.7502 75.8335 52.9168C76.6668 52.0835 77.0835 51.1113 77.0835 50.0002C77.0835 48.8891 76.6668 47.9168 75.8335 47.0835C75.0001 46.2502 74.0279 45.8335 72.9168 45.8335C71.8057 45.8335 70.8335 46.2502 70.0001 47.0835C69.1668 47.9168 68.7501 48.8891 68.7501 50.0002C68.7501 51.1113 69.1668 52.0835 70.0001 52.9168C70.8335 53.7502 71.8057 54.1668 72.9168 54.1668ZM64.0626 40.6252C65.1737 40.6252 66.146 40.2085 66.9793 39.3752C67.8126 38.5418 68.2293 37.5696 68.2293 36.4585C68.2293 35.3474 67.8126 34.3752 66.9793 33.5418C66.146 32.7085 65.1737 32.2918 64.0626 32.2918C62.9515 32.2918 61.9793 32.7085 61.146 33.5418C60.3126 34.3752 59.896 35.3474 59.896 36.4585C59.896 37.5696 60.3126 38.5418 61.146 39.3752C61.9793 40.2085 62.9515 40.6252 64.0626 40.6252ZM33.8543 53.646C34.6182 53.646 35.2432 53.4029 35.7293 52.9168C36.2154 52.4307 36.4585 51.8057 36.4585 51.0418V45.8335H41.6668C42.4307 45.8335 43.0557 45.5904 43.5418 45.1043C44.0279 44.6182 44.271 43.9932 44.271 43.2293C44.271 42.4654 44.0279 41.8404 43.5418 41.3543C43.0557 40.8682 42.4307 40.6252 41.6668 40.6252H36.4585V35.4168C36.4585 34.6529 36.2154 34.0279 35.7293 33.5418C35.2432 33.0557 34.6182 32.8127 33.8543 32.8127C33.0904 32.8127 32.4654 33.0557 31.9793 33.5418C31.4932 34.0279 31.2501 34.6529 31.2501 35.4168V40.6252H26.0418C25.2779 40.6252 24.6529 40.8682 24.1668 41.3543C23.6807 41.8404 23.4376 42.4654 23.4376 43.2293C23.4376 43.9932 23.6807 44.6182 24.1668 45.1043C24.6529 45.5904 25.2779 45.8335 26.0418 45.8335H31.2501V51.0418C31.2501 51.8057 31.4932 52.4307 31.9793 52.9168C32.4654 53.4029 33.0904 53.646 33.8543 53.646Z" fill="#45494C"/>
</g>
</svg>
