<svg width="100" height="100" viewBox="0 0 100 100" fill="none" xmlns="http://www.w3.org/2000/svg">
<path d="M45.5 31C45.075 31 44.7188 30.8554 44.4313 30.5662C44.1438 30.277 44 29.9187 44 29.4912C44 29.0637 44.1438 28.7083 44.4313 28.425C44.7188 28.1417 45.075 28 45.5 28H54.5C54.925 28 55.2812 28.1446 55.5688 28.4338C55.8563 28.723 56 29.0813 56 29.5088C56 29.9363 55.8563 30.2917 55.5688 30.575C55.2812 30.8583 54.925 31 54.5 31H45.5ZM50.0087 53.35C50.4362 53.35 50.7917 53.2063 51.075 52.9188C51.3583 52.6313 51.5 52.275 51.5 51.85V43.35C51.5 42.925 51.3554 42.5688 51.0663 42.2812C50.7771 41.9938 50.4187 41.85 49.9913 41.85C49.5638 41.85 49.2083 41.9938 48.925 42.2812C48.6417 42.5688 48.5 42.925 48.5 43.35V51.85C48.5 52.275 48.6446 52.6313 48.9338 52.9188C49.2229 53.2063 49.5813 53.35 50.0087 53.35ZM50 69.95C47.5333 69.95 45.2083 69.475 43.025 68.525C40.8417 67.575 38.9333 66.2833 37.3 64.65C35.6667 63.0167 34.375 61.1083 33.425 58.925C32.475 56.7417 32 54.4167 32 51.95C32 49.4833 32.475 47.1583 33.425 44.975C34.375 42.7917 35.6667 40.8833 37.3 39.25C38.9333 37.6167 40.8417 36.325 43.025 35.375C45.2083 34.425 47.5333 33.95 50 33.95C52.2333 33.95 54.325 34.3167 56.275 35.05C58.225 35.7833 59.9667 36.8167 61.5 38.15L63 36.65C63.3 36.35 63.6536 36.2 64.0609 36.2C64.4682 36.2 64.8245 36.3544 65.13 36.6631C65.41 36.9462 65.55 37.3064 65.55 37.7439C65.55 38.1813 65.4167 38.5333 65.15 38.8L63.65 40.3C64.85 41.6333 65.875 43.25 66.725 45.15C67.575 47.05 68 49.3167 68 51.95C68 54.4167 67.525 56.7417 66.575 58.925C65.625 61.1083 64.3333 63.0167 62.7 64.65C61.0667 66.2833 59.1583 67.575 56.975 68.525C54.7917 69.475 52.4667 69.95 50 69.95Z" fill="#56BFDB" fill-opacity="0.2"/>
<path d="M54.113 3.03157C53.6734 1.02911 51.514 -0.357986 49.5109 0.0815798C45.0651 0.13042 40.6291 0.745846 36.3788 1.94732C5.12148 10.3088 -9.97465 48.4729 7.18315 75.9115C16.0649 90.9056 33.2521 100.351 50.6248 99.99C54.7873 98.9936 54.543 92.9374 50.361 92.2341C48.3384 92.2439 46.3158 92.1461 44.303 91.8922C44.3323 91.9019 44.3714 91.902 44.4007 91.9117C45.1335 92.0192 43.5311 91.8043 44.049 91.8629C44.1369 91.8727 44.2151 91.8824 44.303 91.8922C40.6487 91.3647 37.0627 90.3879 33.6429 88.9911C33.7211 89.0301 33.809 89.0594 33.9165 89.1181C33.7797 89.0594 33.213 88.825 33.2618 88.8348C30.0472 87.4184 27.0084 85.6113 24.2139 83.5014C24.468 83.687 24.6243 83.8042 23.911 83.2767C24.0087 83.3549 24.1162 83.4232 24.2139 83.5014C21.3803 81.2938 18.8399 78.7345 16.6121 75.9311C16.6414 75.9702 16.6708 76.019 16.7001 76.0581C16.9737 76.4293 16.1431 75.3547 16.4362 75.7162C16.4949 75.7845 16.5535 75.8627 16.6024 75.9311C14.3844 73.0202 12.5181 69.8358 11.0525 66.4756C11.0818 66.5537 11.1111 66.6221 11.1404 66.7002C11.0622 66.5048 10.9743 66.3193 10.8961 66.1239C10.945 66.2411 10.9938 66.3583 11.0525 66.4756C9.60637 62.9395 8.59994 59.2276 8.07231 55.4376C8.09185 55.5841 8.11141 55.6915 8.12118 55.7794C7.64241 52.0089 7.65216 48.1896 8.10162 44.4191C8.09185 44.4679 8.08209 44.5168 8.08209 44.5754C8.00392 45.0931 8.21887 43.4911 8.13093 44.2237C8.12116 44.2921 8.1114 44.3507 8.1114 44.4191C8.62926 40.6877 9.6943 37.0637 11.0818 33.5765C11.0329 33.684 10.984 33.7914 10.9352 33.9086C10.7398 34.3384 11.2772 33.0686 11.1013 33.5081C11.0915 33.5277 11.0818 33.557 11.072 33.5765C12.4888 30.314 14.3062 27.237 16.4265 24.3847C16.192 24.6777 16.7294 23.994 16.7391 23.9842C16.6317 24.1112 16.534 24.2479 16.4265 24.3847C18.6738 21.5226 21.2533 18.9243 24.1162 16.6679C24.0869 16.6874 24.0674 16.707 24.038 16.7265C23.5006 17.127 24.7904 16.1306 24.2237 16.58C24.1846 16.6093 24.1455 16.6386 24.1064 16.6679C27.028 14.4603 30.1938 12.5946 33.555 11.1391C32.8515 11.4126 34.4539 10.7484 33.555 11.1391C36.926 9.7618 40.4533 8.79478 44.0588 8.238C43.8536 8.2673 43.9513 8.24776 44.1369 8.22822C44.1076 8.22822 44.0881 8.238 44.0588 8.238C46.5015 7.76913 49.0419 8.13053 51.4553 7.73004C53.3998 7.16349 54.6798 4.97543 54.113 3.03157ZM44.1857 8.238C44.3714 8.21846 44.5962 8.18917 44.6059 8.18917C44.4691 8.18917 44.3225 8.20869 44.1857 8.238Z" fill="#56BFDB" fill-opacity="0.2"/>
<path d="M66.1023 4.91741C65.0666 -0.288998 57.3573 1.21532 58.3344 6.41196C59.4776 11.4425 66.9036 9.99684 66.1023 4.91741Z" fill="#56BFDB"/>
<path d="M96.0894 46.3818C90.8912 46.4697 90.8521 54.1768 96.0405 54.3233C101.288 54.294 101.336 46.4697 96.0894 46.3818Z" fill="#56BFDB"/>
<path d="M95.4736 58.4361C90.4318 57.1858 88.3994 64.6096 93.3728 66.0944C98.4537 67.4326 100.525 59.8818 95.4736 58.4361Z" fill="#56BFDB"/>
<path d="M91.7611 69.9235C87.2176 67.4033 83.319 74.0456 87.7355 76.771C92.2985 79.379 96.2655 72.6293 91.7611 69.9235Z" fill="#56BFDB"/>
<path d="M79.586 80.0338C75.9512 83.7262 81.3545 89.3037 85.1652 85.6798C88.8391 81.919 83.3283 76.4392 79.586 80.0338Z" fill="#56BFDB"/>
<path d="M70.8216 86.6753C66.3563 89.3127 70.1376 96.0917 74.7593 93.5716C79.2735 90.8853 75.3651 84.1746 70.8216 86.6753Z" fill="#56BFDB"/>
<path d="M61.304 90.7201C56.2036 91.2182 56.7117 98.8471 61.861 98.6322C67.1569 98.2415 66.5706 90.3586 61.304 90.7201Z" fill="#56BFDB"/>
<path d="M77.1823 9.6156C76.1368 4.39942 68.408 5.89393 69.4144 11.1296C70.6064 16.1016 77.9737 14.6755 77.1823 9.6156Z" fill="#56BFDB"/>
<path d="M78.8624 18.1914C79.5952 23.095 86.7671 22.5382 86.7476 17.5857C86.4251 12.1058 78.3152 12.7212 78.8624 18.1914Z" fill="#56BFDB"/>
<path d="M86.3381 28.6337C86.4846 29.0537 86.7191 29.464 87.0025 29.7961C89.7481 33.1368 95.2199 30.1184 93.8129 26.006C92.0248 20.9852 84.5988 23.6812 86.3381 28.6337Z" fill="#56BFDB"/>
<path d="M90.7542 39.4178C92.1319 44.4191 99.6653 42.5241 98.4439 37.4153C97.0173 32.3554 89.523 34.3774 90.7542 39.4178Z" fill="#56BFDB"/>
</svg>
