<svg width="100" height="100" viewBox="0 0 100 100" fill="none" xmlns="http://www.w3.org/2000/svg">
<path d="M45.5 31C45.075 31 44.7188 30.8554 44.4313 30.5662C44.1438 30.277 44 29.9187 44 29.4912C44 29.0637 44.1438 28.7083 44.4313 28.425C44.7188 28.1417 45.075 28 45.5 28H54.5C54.925 28 55.2812 28.1446 55.5688 28.4338C55.8563 28.723 56 29.0813 56 29.5088C56 29.9363 55.8563 30.2917 55.5688 30.575C55.2812 30.8583 54.925 31 54.5 31H45.5ZM50.0087 53.35C50.4362 53.35 50.7917 53.2063 51.075 52.9188C51.3583 52.6313 51.5 52.275 51.5 51.85V43.35C51.5 42.925 51.3554 42.5688 51.0663 42.2812C50.7771 41.9938 50.4187 41.85 49.9913 41.85C49.5638 41.85 49.2083 41.9938 48.925 42.2812C48.6417 42.5688 48.5 42.925 48.5 43.35V51.85C48.5 52.275 48.6446 52.6313 48.9338 52.9188C49.2229 53.2063 49.5813 53.35 50.0087 53.35ZM50 69.95C47.5333 69.95 45.2083 69.475 43.025 68.525C40.8417 67.575 38.9333 66.2833 37.3 64.65C35.6667 63.0167 34.375 61.1083 33.425 58.925C32.475 56.7417 32 54.4167 32 51.95C32 49.4833 32.475 47.1583 33.425 44.975C34.375 42.7917 35.6667 40.8833 37.3 39.25C38.9333 37.6167 40.8417 36.325 43.025 35.375C45.2083 34.425 47.5333 33.95 50 33.95C52.2333 33.95 54.325 34.3167 56.275 35.05C58.225 35.7833 59.9667 36.8167 61.5 38.15L63 36.65C63.3 36.35 63.6536 36.2 64.0609 36.2C64.4682 36.2 64.8245 36.3544 65.13 36.6631C65.41 36.9462 65.55 37.3064 65.55 37.7439C65.55 38.1813 65.4167 38.5333 65.15 38.8L63.65 40.3C64.85 41.6333 65.875 43.25 66.725 45.15C67.575 47.05 68 49.3167 68 51.95C68 54.4167 67.525 56.7417 66.575 58.925C65.625 61.1083 64.3333 63.0167 62.7 64.65C61.0667 66.2833 59.1583 67.575 56.975 68.525C54.7917 69.475 52.4667 69.95 50 69.95Z" fill="#56BFDB" fill-opacity="0.2"/>
<path d="M90.9321 21.2877C86.9258 15.6759 81.8934 10.9734 76.1087 7.40494C75.8742 7.1703 75.6201 6.9552 75.327 6.77922C75.0338 6.60324 74.7211 6.49572 74.4182 6.39795C72.6887 5.88957 70.8223 6.60325 69.8842 8.21638C68.8778 9.93707 69.3566 12.1173 70.8516 13.3002C71.135 13.4567 71.4086 13.6424 71.6822 13.8086C72.249 14.1508 72.8353 14.4734 73.3825 14.8449C73.8319 15.1382 74.2716 15.4413 74.7114 15.7541C74.9459 15.9203 75.1706 16.0865 75.4052 16.2528C75.5029 16.331 75.6104 16.3994 75.7081 16.4776L75.7179 16.4874C75.5908 16.3896 75.5615 16.3603 75.8351 16.5754C76.3921 17.0055 75.8547 16.5949 75.7179 16.4874C75.8644 16.6047 76.1282 16.81 76.1869 16.8589C76.3823 17.0153 76.5777 17.1815 76.7731 17.338C77.2324 17.7193 77.6819 18.1201 78.1314 18.5209C78.9522 19.264 79.7437 20.0265 80.5059 20.8282C81.2973 21.6494 82.0498 22.5 82.7728 23.3701C82.9585 23.5852 83.1344 23.8101 83.3103 24.0349C83.3396 24.074 83.3689 24.1131 83.408 24.1522C83.3885 24.1229 83.3689 24.0936 83.3494 24.0642C82.9878 23.5852 83.6034 24.3967 83.6132 24.4064C83.5546 24.3184 83.4862 24.2402 83.4178 24.1522C83.7403 24.5824 84.0529 25.0028 84.3656 25.4427C85.6848 27.3101 86.8574 29.2752 87.8834 31.3185C88.1374 31.8367 88.3914 32.3548 88.626 32.873C88.7335 33.1076 88.8409 33.3422 88.9387 33.5769C88.9875 33.6942 89.0364 33.8115 89.095 33.9288C89.056 33.8408 89.0266 33.7822 88.9973 33.7138C89.4272 34.7892 89.8279 35.8744 90.1797 36.9694C90.893 39.2082 91.4402 41.5057 91.8017 43.8228C91.8408 44.0867 91.8701 44.3507 91.919 44.6049C91.8799 44.38 91.8604 44.2334 91.8408 44.1258C91.8701 44.3018 91.9092 44.5364 91.919 44.6538C91.9874 45.2208 92.0363 45.7781 92.0851 46.3451C92.1828 47.5574 92.2219 48.7697 92.2219 49.9918C92.2219 51.2041 92.1731 52.4262 92.0851 53.6385C92.0363 54.2348 91.9776 54.8312 91.9092 55.4276C91.9092 55.4471 91.8995 55.4765 91.8995 55.496C91.9092 55.4569 91.9092 55.4178 91.919 55.3787C91.919 55.3982 91.7822 56.4444 91.8603 55.8284C91.8701 55.7209 91.8897 55.6133 91.8995 55.5058C91.8408 55.7893 91.8213 56.0826 91.7724 56.3661C91.4011 58.6832 90.8441 60.9709 90.121 63.2098C89.7693 64.3047 89.3588 65.3704 88.9387 66.436C88.9387 66.436 88.9387 66.4263 88.9484 66.4263C88.9973 66.3089 89.056 66.1916 89.1048 66.0743C89.1048 66.0841 88.7041 67.0422 88.9387 66.4751C88.9387 66.4654 88.9484 66.4556 88.9484 66.4458C88.8312 66.7098 88.7237 66.964 88.6065 67.2182C88.3524 67.7657 88.0886 68.3131 87.815 68.8606C86.7792 70.9039 85.5968 72.8593 84.2777 74.7266C83.9943 75.1177 83.7012 75.5087 83.4178 75.8998C83.4569 75.8509 83.4862 75.8118 83.5253 75.7629C83.9748 75.2056 83.0269 76.4277 83.3201 76.0269C83.3494 75.9878 83.3787 75.9389 83.4178 75.8998C83.3787 75.9487 83.3299 76.0073 83.2908 76.0562C83.0953 76.3006 82.8901 76.5451 82.6947 76.7895C81.9716 77.6596 81.2094 78.5101 80.4179 79.3216C79.6265 80.1428 78.8056 80.925 77.9653 81.6778C77.5647 82.0395 77.1543 82.3817 76.7439 82.7238C76.5289 82.9096 76.3041 83.0856 76.0794 83.2616C76.0208 83.3105 75.9621 83.3593 75.8937 83.4082C75.9133 83.3886 75.9426 83.3691 75.9719 83.3593C76.5484 82.9291 75.2586 83.9264 75.7863 83.506C75.8254 83.4767 75.8644 83.4473 75.9035 83.418C74.0958 84.7671 72.2196 86.0088 70.2458 87.094C69.2686 87.6317 68.2719 88.1303 67.2557 88.5996C67.0016 88.7169 66.7378 88.8342 66.4838 88.9418C66.4936 88.9418 66.5033 88.932 66.5131 88.932C67.0994 88.6974 65.575 89.3426 66.4642 88.9516C66.4642 88.9516 66.474 88.9516 66.474 88.9418C65.917 89.1666 65.36 89.3817 64.8031 89.587C62.6045 90.3887 60.3473 91.0242 58.0608 91.4739C57.5136 91.5814 56.9663 91.6792 56.4094 91.7672C56.1749 91.8063 55.9403 91.8356 55.7058 91.8748C55.7937 91.865 55.8817 91.8552 55.9696 91.8454C56.4582 91.7867 55.0413 91.9725 55.5201 91.9041C55.5788 91.8943 55.6374 91.8845 55.6961 91.8748C55.5886 91.8845 55.4811 91.9041 55.3736 91.9138C54.1717 92.0507 52.9698 92.1387 51.7679 92.1876C49.3739 92.2756 46.9799 92.1778 44.6054 91.9041C44.5272 91.8943 44.4393 91.8845 44.3611 91.8748C44.3904 91.8845 44.4295 91.8846 44.4588 91.8943C45.1917 92.0019 43.5892 91.7867 44.1071 91.8454C44.195 91.8552 44.2732 91.865 44.3611 91.8748C44.1364 91.8356 43.9019 91.8063 43.6771 91.7672C43.0908 91.6695 42.5143 91.5717 41.928 91.4544C40.775 91.2197 39.6317 90.946 38.508 90.6233C37.394 90.3105 36.2801 89.9488 35.1954 89.5479C34.6971 89.3622 34.1987 89.1666 33.7004 88.9711C33.7786 89.0102 33.8665 89.0395 33.974 89.0982C33.8567 89.0493 33.7395 89.0004 33.6222 88.9418C33.6222 88.9418 33.6125 88.9418 33.6125 88.932C33.6027 88.932 33.5929 88.9222 33.5831 88.9222C33.4366 88.8635 33.2314 88.7658 33.3291 88.8049C33.1337 88.7169 32.948 88.6387 32.7623 88.5507C30.681 87.5926 28.6779 86.4781 26.7627 85.2267C25.9125 84.6694 25.1015 84.073 24.2807 83.4766C24.5347 83.6624 24.6911 83.7797 23.9778 83.2518C24.0755 83.33 24.183 83.3984 24.2807 83.4766C24.1634 83.3886 24.0169 83.2811 23.9387 83.2225C23.7139 83.0465 23.499 82.8607 23.284 82.6848C22.8443 82.323 22.4143 81.9515 21.9942 81.5702C20.3037 80.0548 18.7305 78.4026 17.2745 76.6526C17.1182 76.4571 16.9521 76.2615 16.7957 76.066C16.7566 76.0171 16.7078 75.9584 16.6687 75.9096C16.698 75.9487 16.7273 75.9975 16.7566 76.0367C17.0302 76.4082 16.1997 75.3327 16.4928 75.6945C16.5514 75.7629 16.6101 75.8411 16.6589 75.9096C16.3267 75.4696 16.0042 75.0297 15.6818 74.5799C15.0271 73.6512 14.4017 72.6931 13.8154 71.7154C13.2291 70.728 12.6722 69.7307 12.164 68.7042C11.9197 68.2154 11.6852 67.7265 11.4605 67.2377C11.3432 66.9737 11.226 66.7196 11.1087 66.4556C11.138 66.5338 11.1673 66.6022 11.1966 66.6804C11.1185 66.4849 11.0305 66.2992 10.9524 66.1036C11.0012 66.2209 11.0501 66.3383 11.1087 66.4556C11.0892 66.4067 11.0696 66.3676 11.0501 66.3187C10.1706 64.1581 9.46711 61.9388 8.92967 59.6706C8.65607 58.517 8.43132 57.3634 8.24566 56.1902C8.20657 55.9262 8.16749 55.6622 8.1284 55.408C8.14795 55.5547 8.16748 55.6622 8.17725 55.7502C8.15771 55.6427 8.14796 55.5351 8.13819 55.4569C8.06001 54.8312 8.00138 54.1957 7.95252 53.5603C7.76687 51.1357 7.77663 48.7013 7.97206 46.2767C8.02091 45.7096 8.06978 45.1426 8.13819 44.5853C8.14796 44.5169 8.15772 44.4485 8.15772 44.3898C8.14795 44.4387 8.13819 44.4876 8.13819 44.5462C8.06001 45.0644 8.27497 43.461 8.18703 44.1943C8.17726 44.2627 8.1675 44.3214 8.1675 44.3898C8.20658 44.1161 8.24565 43.8325 8.2945 43.5588C8.48016 42.3954 8.72445 41.232 8.99805 40.0881C9.54526 37.8395 10.2977 35.6789 11.138 33.528C11.0892 33.6356 11.0403 33.7431 10.9914 33.8604C10.796 34.2906 11.3335 33.0196 11.1576 33.4596C11.1478 33.4791 11.138 33.5085 11.1283 33.528C11.1478 33.4889 11.1576 33.4498 11.1771 33.4205C11.2846 33.1858 11.3823 32.9512 11.4898 32.7165C11.7341 32.1984 11.9784 31.6802 12.2422 31.1621C12.7601 30.1453 13.3171 29.1383 13.9034 28.1606C14.4897 27.183 15.115 26.2347 15.7795 25.2961C16.0042 24.9735 16.2387 24.6411 16.483 24.3282C16.2485 24.6215 16.7859 23.9372 16.7957 23.9274C16.6882 24.0545 16.5905 24.1914 16.483 24.3282C16.5026 24.3087 16.5124 24.2989 16.5319 24.2696C16.6101 24.1718 16.6882 24.074 16.7664 23.9763C16.9618 23.7318 17.167 23.4874 17.3625 23.243C18.8184 21.5028 20.4014 19.8603 22.1016 18.345C22.5218 17.9637 22.9615 17.5921 23.3915 17.2304C23.5869 17.074 23.7823 16.9078 23.9778 16.7514C24.0364 16.7025 24.1048 16.6536 24.1634 16.6047C24.1341 16.6243 24.1146 16.6438 24.0852 16.6634C23.5478 17.0642 24.8377 16.067 24.2709 16.5167C24.2318 16.546 24.1927 16.5754 24.1537 16.6047C25.0429 15.9399 25.9418 15.2946 26.8701 14.6885C28.7853 13.4371 30.7983 12.3323 32.8894 11.384C33.1239 11.2765 33.3584 11.1689 33.5929 11.0712C33.6027 11.0712 33.6027 11.0712 33.6125 11.0614C34.5114 10.6703 32.9089 11.3351 33.6125 11.0614C33.6222 11.0614 33.632 11.0516 33.6418 11.0516C34.2085 10.8267 34.7753 10.6019 35.3518 10.3966C36.4462 9.99574 37.5504 9.64378 38.6741 9.33093C39.8076 9.01808 40.9509 8.74432 42.1039 8.51946C42.6511 8.41191 43.2081 8.31416 43.7553 8.22617C43.8725 8.20662 43.9996 8.18707 44.1168 8.16751C43.9116 8.19684 44.0093 8.17728 44.195 8.15773C44.1657 8.15773 44.1461 8.16751 44.1168 8.16751C44.1461 8.16751 44.1559 8.1675 44.1852 8.15773C44.3807 8.13817 44.5761 8.10884 44.7813 8.08928C46.3936 7.90353 48.0254 7.81556 49.6475 7.80578C50.0677 7.80578 50.4878 7.80576 50.908 7.81554C52.7646 7.52224 54.2596 5.91889 54.2694 3.94402C54.2792 2.0278 52.9698 0.404898 51.1328 0.0138338C50.5953 0.00405717 50.0677 -0.00572898 49.5302 0.00404762C45.0842 0.0529306 40.6479 0.66886 36.3973 1.87138C26.7822 4.58928 17.939 10.289 11.5973 18.0125C4.95266 26.1173 0.965884 35.9135 0.145078 46.3745C-0.656184 56.6106 1.88441 67.1204 7.2001 75.89C12.3399 84.3663 20.0692 91.3859 29.1176 95.4628C38.8793 99.8622 49.6768 101.114 60.1812 98.9921C69.982 97.0172 79.177 91.865 86.0854 84.64C93.0134 77.3858 97.821 68.0003 99.3355 58.0575C99.746 55.3885 100 52.7097 100 50.0113C99.9902 39.8241 96.8634 29.6076 90.9321 21.2877ZM44.625 8.10886C44.4882 8.11863 44.3416 8.13817 44.2048 8.15773C44.3904 8.13817 44.625 8.10886 44.625 8.10886Z" fill="#56BFDB" fill-opacity="0.2"/>
<path d="M57.3834 3.50836C56.8655 5.4138 57.8719 7.36812 59.5819 8.14007C60.0021 8.24755 60.4125 8.35502 60.8229 8.48205C62.6795 8.6677 64.5165 7.50492 65.0442 5.60925C65.5523 3.76244 64.7022 1.85698 63.041 1.00686C62.5231 0.850513 62.0053 0.71371 61.4776 0.576909C59.6113 0.440108 57.8915 1.65177 57.3834 3.50836Z" fill="#56BFDB"/>
</svg>
