<svg width="100" height="100" viewBox="0 0 100 100" fill="none" xmlns="http://www.w3.org/2000/svg">
<path d="M45.5 31C45.075 31 44.7188 30.8554 44.4313 30.5662C44.1438 30.277 44 29.9187 44 29.4912C44 29.0637 44.1438 28.7083 44.4313 28.425C44.7188 28.1417 45.075 28 45.5 28H54.5C54.925 28 55.2812 28.1446 55.5688 28.4338C55.8563 28.723 56 29.0813 56 29.5088C56 29.9363 55.8563 30.2917 55.5688 30.575C55.2812 30.8583 54.925 31 54.5 31H45.5ZM50.0087 53.35C50.4362 53.35 50.7917 53.2063 51.075 52.9188C51.3583 52.6313 51.5 52.275 51.5 51.85V43.35C51.5 42.925 51.3554 42.5688 51.0663 42.2812C50.7771 41.9938 50.4187 41.85 49.9913 41.85C49.5638 41.85 49.2083 41.9938 48.925 42.2812C48.6417 42.5688 48.5 42.925 48.5 43.35V51.85C48.5 52.275 48.6446 52.6313 48.9338 52.9188C49.2229 53.2063 49.5813 53.35 50.0087 53.35ZM50 69.95C47.5333 69.95 45.2083 69.475 43.025 68.525C40.8417 67.575 38.9333 66.2833 37.3 64.65C35.6667 63.0167 34.375 61.1083 33.425 58.925C32.475 56.7417 32 54.4167 32 51.95C32 49.4833 32.475 47.1583 33.425 44.975C34.375 42.7917 35.6667 40.8833 37.3 39.25C38.9333 37.6167 40.8417 36.325 43.025 35.375C45.2083 34.425 47.5333 33.95 50 33.95C52.2333 33.95 54.325 34.3167 56.275 35.05C58.225 35.7833 59.9667 36.8167 61.5 38.15L63 36.65C63.3 36.35 63.6536 36.2 64.0609 36.2C64.4682 36.2 64.8245 36.3544 65.13 36.6631C65.41 36.9462 65.55 37.3064 65.55 37.7439C65.55 38.1813 65.4167 38.5333 65.15 38.8L63.65 40.3C64.85 41.6333 65.875 43.25 66.725 45.15C67.575 47.05 68 49.3167 68 51.95C68 54.4167 67.525 56.7417 66.575 58.925C65.625 61.1083 64.3333 63.0167 62.7 64.65C61.0667 66.2833 59.1583 67.575 56.975 68.525C54.7917 69.475 52.4667 69.95 50 69.95Z" fill="#56BFDB" fill-opacity="0.2"/>
<path d="M99.9976 49.4834C99.6263 47.6552 98.0242 46.3158 96.1094 46.306C94.136 46.2962 92.524 47.7627 92.2016 49.6105C92.2016 49.7376 92.2114 49.8647 92.2114 49.9918C92.2114 50.2851 92.2016 50.5784 92.1919 50.8814C92.1723 51.8004 92.143 52.7194 92.0649 53.6384C92.016 54.2348 91.9574 54.8312 91.889 55.4276C91.889 55.4471 91.8792 55.4765 91.8792 55.496C91.889 55.4569 91.889 55.4178 91.8988 55.3787C91.8988 55.3983 91.762 56.4443 91.8402 55.8284C91.85 55.7208 91.8695 55.6133 91.8792 55.5058C91.8206 55.7893 91.8011 56.0826 91.7522 56.3661C91.381 58.6832 90.8241 60.9709 90.1012 63.2098C89.7495 64.3047 89.3392 65.3704 88.9192 66.436C88.9192 66.436 88.9192 66.4262 88.9289 66.4262C88.9778 66.3089 89.0364 66.1916 89.0852 66.0743C89.0852 66.0841 88.6847 67.0422 88.9192 66.4751C88.9192 66.4653 88.9289 66.4556 88.9289 66.4458C88.8117 66.7098 88.7042 66.964 88.587 67.2181C88.333 67.7656 88.0692 68.3131 87.7957 68.8606C86.7601 70.9039 85.578 72.8592 84.2592 74.7266C83.9758 75.1176 83.6828 75.5087 83.3994 75.8998C83.4385 75.8509 83.4678 75.8118 83.5069 75.7629C83.9563 75.2056 83.0087 76.4277 83.3018 76.0269C83.3311 75.9878 83.3604 75.9389 83.3994 75.8998C83.3604 75.9487 83.3115 76.0073 83.2724 76.0562C83.0771 76.3006 82.8719 76.545 82.6765 76.7894C81.9536 77.6595 81.1916 78.5101 80.4003 79.3216C79.6089 80.1428 78.7883 80.9249 77.9481 81.6777C77.5476 82.0395 77.1373 82.3816 76.727 82.7238C76.512 82.9096 76.2874 83.0855 76.0627 83.2615C76.004 83.3104 75.9454 83.3593 75.877 83.4082C75.8966 83.3886 75.9259 83.3691 75.9552 83.3593C76.5316 82.9292 75.242 83.9263 75.7696 83.5059C75.8087 83.4766 75.8477 83.4473 75.8868 83.418C74.0795 84.7672 72.2038 86.0088 70.2304 87.094C69.2534 87.6317 68.257 88.1303 67.241 88.5996C66.987 88.7169 66.7232 88.8342 66.4691 88.9417C66.4789 88.9417 66.4887 88.932 66.4985 88.932C67.0846 88.6974 65.5606 89.3426 66.4496 88.9515C66.4496 88.9515 66.4594 88.9515 66.4594 88.9417C65.9026 89.1666 65.3457 89.3817 64.7888 89.587C62.5907 90.3887 60.334 91.0242 58.048 91.4739C57.5009 91.5814 56.9538 91.6792 56.397 91.7672C56.1625 91.8063 55.9281 91.8356 55.6936 91.8747C55.7815 91.8649 55.8695 91.8552 55.9574 91.8454C56.4458 91.7867 55.0293 91.9725 55.508 91.9041C55.5666 91.8943 55.6252 91.8845 55.6838 91.8747C55.5763 91.8845 55.4689 91.9041 55.3614 91.9138C54.1598 92.0507 52.9582 92.1387 51.7565 92.1876C49.3631 92.2755 46.9695 92.1778 44.5956 91.9041C44.5174 91.8943 44.4295 91.8845 44.3514 91.8747C44.3807 91.8845 44.4198 91.8845 44.4491 91.8943C45.1818 92.0018 43.5796 91.7867 44.0974 91.8454C44.1853 91.8552 44.2634 91.8649 44.3514 91.8747C44.1267 91.8356 43.8922 91.8063 43.6675 91.7672C43.0814 91.6694 42.505 91.5716 41.9188 91.4543C40.766 91.2197 39.623 90.946 38.4995 90.6233C37.3858 90.3105 36.2721 89.9488 35.1877 89.5479C34.6895 89.3622 34.1912 89.1666 33.693 88.9711C33.7711 89.0102 33.8591 89.0395 33.9665 89.0982C33.8493 89.0493 33.7321 89.0004 33.6148 88.9417C33.6148 88.9417 33.6051 88.9418 33.6051 88.932C33.5953 88.932 33.5855 88.9222 33.5758 88.9222C33.4292 88.8635 33.2241 88.7658 33.3218 88.8049C33.1264 88.7169 32.9408 88.6387 32.7551 88.5507C30.6743 87.5926 28.6716 86.478 26.7568 85.2266C25.9068 84.6694 25.096 84.073 24.2754 83.4766C24.5294 83.6624 24.6857 83.7797 23.9725 83.2518C24.0702 83.33 24.1777 83.3984 24.2754 83.4766C24.1581 83.3886 24.0116 83.2811 23.9334 83.2224C23.7087 83.0465 23.4938 82.8607 23.2789 82.6847C22.8392 82.323 22.4094 81.9515 21.9893 81.5702C20.2992 80.0548 18.7264 78.4026 17.2707 76.6526C17.1144 76.4571 16.9483 76.2615 16.792 76.066C16.753 76.0171 16.7041 75.9584 16.665 75.9096C16.6943 75.9487 16.7236 75.9976 16.7529 76.0367C17.0265 76.4082 16.1961 75.3327 16.4892 75.6944C16.5478 75.7629 16.6064 75.8411 16.6552 75.9096C16.3231 75.4696 16.0007 75.0296 15.6783 74.5799C15.0238 73.6511 14.3985 72.693 13.8124 71.7154C13.2262 70.7279 12.6694 69.7308 12.1614 68.7042C11.9171 68.2154 11.6827 67.7266 11.458 67.2377C11.3407 66.9738 11.2235 66.7195 11.1063 66.4556C11.1356 66.5338 11.1649 66.6022 11.1942 66.6805C11.116 66.4849 11.0281 66.2991 10.9499 66.1036C10.9988 66.2209 11.0476 66.3382 11.1063 66.4556C11.0867 66.4067 11.0672 66.3676 11.0476 66.3187C10.1684 64.1581 9.46503 61.9388 8.92771 59.6706C8.65417 58.5169 8.42946 57.3633 8.24385 56.1901C8.20477 55.9262 8.1657 55.6622 8.12662 55.408C8.14616 55.5546 8.16568 55.6622 8.17545 55.7502C8.15592 55.6427 8.14614 55.5351 8.13637 55.4569C8.05821 54.8312 7.99962 54.1957 7.95078 53.5602C7.76516 51.1356 7.77492 48.7013 7.97031 46.2767C8.01915 45.7097 8.06798 45.1426 8.13637 44.5853C8.14614 44.5169 8.15593 44.4485 8.15593 44.3898C8.14616 44.4387 8.13637 44.4876 8.13637 44.5462C8.05821 45.0644 8.27316 43.461 8.18523 44.1943C8.17546 44.2627 8.16567 44.3214 8.16567 44.3898C8.20475 44.1161 8.24383 43.8325 8.29268 43.5588C8.4783 42.3954 8.72253 41.232 8.99608 40.0881C9.54316 37.8395 10.2954 35.6788 11.1356 33.528C11.0867 33.6355 11.0379 33.7431 10.989 33.8604C10.7936 34.2906 11.331 33.0196 11.1551 33.4595C11.1454 33.4791 11.1356 33.5084 11.1258 33.528C11.1454 33.4889 11.1551 33.4498 11.1747 33.4204C11.2821 33.1858 11.3798 32.9512 11.4873 32.7166C11.7315 32.1984 11.9757 31.6802 12.2395 31.1621C12.7573 30.1453 13.3141 29.1383 13.9003 28.1606C14.4865 27.183 15.1117 26.2347 15.776 25.2961C16.0007 24.9735 16.2352 24.6411 16.4794 24.3282C16.2449 24.6215 16.7823 23.9371 16.792 23.9274C16.6846 24.0544 16.5869 24.1914 16.4794 24.3282C16.4989 24.3087 16.5087 24.2989 16.5283 24.2696C16.6064 24.1718 16.6846 24.074 16.7627 23.9763C16.9581 23.7319 17.1632 23.4875 17.3586 23.243C18.8143 21.5028 20.3969 19.8603 22.0968 18.345C22.5169 17.9637 22.9565 17.5921 23.3863 17.2304C23.5817 17.074 23.7771 16.9078 23.9725 16.7514C24.0311 16.7025 24.0995 16.6536 24.1581 16.6047C24.1288 16.6242 24.1093 16.6438 24.08 16.6633C23.5426 17.0642 24.8322 16.067 24.2656 16.5167C24.2265 16.5461 24.1874 16.5754 24.1483 16.6047C25.0374 15.9399 25.9361 15.2947 26.8642 14.6885C28.779 13.4371 30.7915 12.3323 32.8821 11.384C33.1166 11.2765 33.3511 11.1689 33.5855 11.0712C33.5953 11.0712 33.5953 11.0712 33.6051 11.0614C32.9017 11.3351 34.5039 10.6703 33.6051 11.0614C33.6148 11.0614 33.6246 11.0516 33.6344 11.0516C34.201 10.8267 34.7676 10.6019 35.344 10.3966C36.4382 9.99573 37.5421 9.64375 38.6656 9.3309C39.7988 9.01805 40.9419 8.74435 42.0946 8.51948C42.6417 8.41194 43.1986 8.31413 43.7457 8.22614C43.8629 8.20659 43.9899 8.18703 44.1071 8.16748C43.902 8.19681 43.9997 8.17731 44.1853 8.15775C44.156 8.15775 44.1364 8.16748 44.1071 8.16748C44.1364 8.16748 44.1462 8.16753 44.1755 8.15775C44.3709 8.1382 44.5663 8.10886 44.7714 8.08931C46.3834 7.90356 48.0149 7.81553 49.6366 7.80575C50.0567 7.80575 50.4768 7.80576 50.8968 7.81554C52.753 7.53202 54.2477 5.91886 54.2575 3.94398C54.2672 2.02777 52.9581 0.404898 51.1215 0.0138338C50.5842 0.00405717 50.0567 -0.00572897 49.5194 0.00404762C45.0743 0.0529306 40.639 0.66883 36.3893 1.87135C26.7763 4.58925 17.935 10.289 11.5947 18.0125C4.95157 26.1173 0.965672 35.9135 0.145046 46.3744C-0.65604 56.6105 1.88399 67.1204 7.19852 75.89C12.3372 84.3663 20.0647 91.3859 29.1112 95.4628C38.8707 99.8622 49.6659 101.114 60.168 98.9921C69.9666 97.0172 79.1595 91.865 86.0665 84.6401C92.9929 77.3858 97.7994 68.0003 99.3137 58.0575C99.6654 55.7698 99.8901 53.4723 99.9585 51.165C99.9683 50.7739 99.9878 50.3926 99.9878 50.0016C100.007 49.8256 99.9976 49.6594 99.9976 49.4834ZM44.6347 8.07953C44.4979 8.0893 44.3514 8.10884 44.2146 8.1284C44.4002 8.10884 44.6347 8.07953 44.6347 8.07953Z" fill="#56BFDB" fill-opacity="0.2"/>
<path d="M64.0466 1.9794C63.8024 1.8523 63.5484 1.75454 63.2748 1.67633C63.0111 1.60789 62.7473 1.559 62.4835 1.54923C60.6078 1.42213 58.8982 2.62465 58.3902 4.4822C57.8724 6.38864 58.8786 8.34395 60.5883 9.1163C60.7739 9.20429 60.9693 9.28249 61.1744 9.34114C61.3893 9.3998 61.614 9.42913 61.8289 9.45846C63.6851 9.64421 65.5218 8.4808 66.0493 6.58414C66.5671 4.73636 65.7172 2.82996 64.0466 1.9794Z" fill="#56BFDB"/>
<path d="M86.223 15.5789C86.057 15.3052 85.8713 15.0315 85.6368 14.7968C85.3926 14.5524 85.1288 14.3569 84.8455 14.1907C83.302 13.2619 81.3188 13.4672 80 14.7773C78.5541 16.2046 78.4857 18.4924 79.6873 20.0273C79.785 20.1446 79.8632 20.2717 79.9804 20.389C80.1465 20.5552 80.3321 20.7019 80.5177 20.8388C82.032 21.9142 84.191 21.8067 85.5782 20.4379C86.9166 19.1279 87.1414 17.1334 86.223 15.5789Z" fill="#56BFDB"/>
<path d="M93.8428 25.922C93.7646 25.6874 93.6571 25.4429 93.5301 25.2181C93.4031 24.9932 93.2469 24.7879 93.0808 24.5924C91.8499 23.1552 89.7689 22.7837 88.0886 23.7418C86.379 24.7194 85.7147 26.7921 86.3595 28.5519C86.4376 28.7572 86.5157 28.9527 86.6232 29.1483C86.7404 29.3536 86.8772 29.5393 87.0238 29.7153C88.2156 31.1525 90.3258 31.612 92.0257 30.6441C93.7158 29.686 94.4485 27.7111 93.8428 25.922Z" fill="#56BFDB"/>
<path d="M98.1518 36.5198C97.3116 34.8675 95.4359 34.0169 93.5993 34.496C91.704 34.9946 90.5219 36.8033 90.6685 38.6608C90.688 38.8857 90.7173 39.1106 90.7759 39.3452C90.8345 39.5603 90.9127 39.7558 91.0007 39.9514C91.7627 41.672 93.697 42.6888 95.602 42.1902C97.4386 41.7112 98.65 40.0589 98.5914 38.2111C98.4546 37.6441 98.3081 37.077 98.1518 36.5198Z" fill="#56BFDB"/>
<path d="M75.3302 6.76066C75.0371 6.58468 74.7245 6.47719 74.4217 6.37942C72.6925 5.87104 70.8265 6.58471 69.8887 8.19785C68.8824 9.91853 69.3612 12.0987 70.8559 13.2817C71.0024 13.399 71.149 13.5163 71.315 13.6141C71.4323 13.6825 71.569 13.7314 71.6961 13.79C73.4838 14.6113 75.7015 13.9856 76.7468 12.216C77.6846 10.6127 77.4013 8.64755 76.1313 7.37659C75.8773 7.15173 75.6233 6.93664 75.3302 6.76066Z" fill="#56BFDB"/>
</svg>
