<svg width="100" height="100" viewBox="0 0 100 100" fill="none" xmlns="http://www.w3.org/2000/svg">
<path fill-rule="evenodd" clip-rule="evenodd" d="M50 0C22.3858 0 0 22.3858 0 50C0 77.6142 22.3858 100 50 100C54.5083 100 58.8773 99.4033 63.0322 98.2847L63.0281 98.2695C65.1063 97.6603 66.3282 95.4994 65.7647 93.3963C65.1929 91.2624 62.9996 89.9961 60.8657 90.5679C60.7674 90.5942 60.6709 90.624 60.5763 90.6571C57.1973 91.5336 53.6531 92 50 92C26.804 92 8 73.196 8 50C8 26.804 26.804 8 50 8C52.2091 8 54 6.20914 54 4C54 1.79086 52.2091 0 50 0Z" fill="#56BFDB" fill-opacity="0.2"/>
<circle cx="61.9058" cy="5.56744" r="4" transform="rotate(15 61.9058 5.56744)" fill="#56BFDB"/>
<circle cx="73" cy="10.1628" r="4" transform="rotate(30 73 10.1628)" fill="#56BFDB"/>
<circle cx="82.5269" cy="17.473" r="4" transform="rotate(45 82.5269 17.473)" fill="#56BFDB"/>
<circle cx="89.8372" cy="27" r="4" transform="rotate(60 89.8372 27)" fill="#56BFDB"/>
<circle cx="94.4326" cy="38.0943" r="4" transform="rotate(75 94.4326 38.0943)" fill="#56BFDB"/>
<circle cx="96" cy="50" r="4" transform="rotate(90 96 50)" fill="#56BFDB"/>
<circle cx="94.4326" cy="61.9056" r="4" transform="rotate(105 94.4326 61.9056)" fill="#56BFDB"/>
<circle cx="89.8372" cy="73" r="4" transform="rotate(120 89.8372 73)" fill="#56BFDB"/>
<circle cx="82.5267" cy="82.5269" r="4" transform="rotate(135 82.5267 82.5269)" fill="#56BFDB"/>
<circle cx="73" cy="89.8372" r="4" transform="rotate(150 73 89.8372)" fill="#56BFDB"/>
<path d="M45.5 31C45.075 31 44.7188 30.8554 44.4313 30.5663C44.1438 30.2771 44 29.9187 44 29.4913C44 29.0638 44.1438 28.7083 44.4313 28.425C44.7188 28.1417 45.075 28 45.5 28H54.5C54.925 28 55.2812 28.1446 55.5688 28.4337C55.8563 28.7229 56 29.0813 56 29.5087C56 29.9362 55.8563 30.2917 55.5688 30.575C55.2812 30.8583 54.925 31 54.5 31H45.5ZM50.0087 53.35C50.4362 53.35 50.7917 53.2063 51.075 52.9188C51.3583 52.6313 51.5 52.275 51.5 51.85V43.35C51.5 42.925 51.3554 42.5688 51.0663 42.2812C50.7771 41.9938 50.4187 41.85 49.9913 41.85C49.5638 41.85 49.2083 41.9938 48.925 42.2812C48.6417 42.5688 48.5 42.925 48.5 43.35V51.85C48.5 52.275 48.6446 52.6313 48.9338 52.9188C49.2229 53.2063 49.5813 53.35 50.0087 53.35ZM50 69.95C47.5333 69.95 45.2083 69.475 43.025 68.525C40.8417 67.575 38.9333 66.2833 37.3 64.65C35.6667 63.0167 34.375 61.1083 33.425 58.925C32.475 56.7417 32 54.4167 32 51.95C32 49.4833 32.475 47.1583 33.425 44.975C34.375 42.7917 35.6667 40.8833 37.3 39.25C38.9333 37.6167 40.8417 36.325 43.025 35.375C45.2083 34.425 47.5333 33.95 50 33.95C52.2333 33.95 54.325 34.3167 56.275 35.05C58.225 35.7833 59.9667 36.8167 61.5 38.15L63 36.65C63.3 36.35 63.6583 36.2 64.075 36.2C64.4917 36.2 64.85 36.35 65.15 36.65C65.45 36.95 65.6 37.3083 65.6 37.725C65.6 38.1417 65.45 38.5 65.15 38.8L63.65 40.3C64.85 41.6333 65.875 43.25 66.725 45.15C67.575 47.05 68 49.3167 68 51.95C68 54.4167 67.525 56.7417 66.575 58.925C65.625 61.1083 64.3333 63.0167 62.7 64.65C61.0667 66.2833 59.1583 67.575 56.975 68.525C54.7917 69.475 52.4667 69.95 50 69.95Z" fill="#56BFDB" fill-opacity="0.2"/>
</svg>
