<svg width="17" height="19" viewBox="0 0 17 19" fill="none" xmlns="http://www.w3.org/2000/svg">
<path d="M13.5 6C13.5 4.67392 12.9732 3.40215 12.0355 2.46447C11.0979 1.52678 9.82608 1 8.5 1C7.17392 1 5.90215 1.52678 4.96447 2.46447C4.02678 3.40215 3.5 4.67392 3.5 6C3.5 11.8333 1 13.5 1 13.5H16C16 13.5 13.5 11.8333 13.5 6Z" stroke="white" stroke-width="1.5" stroke-linecap="round" stroke-linejoin="round"/>
<path d="M9.94095 16.8333C9.79444 17.0858 9.58415 17.2955 9.33114 17.4412C9.07812 17.5869 8.79127 17.6636 8.49928 17.6636C8.2073 17.6636 7.92044 17.5869 7.66743 17.4412C7.41441 17.2955 7.20413 17.0858 7.05762 16.8333" stroke="white" stroke-width="1.5" stroke-linecap="round" stroke-linejoin="round"/>
</svg>
