<svg width="19" height="20" viewBox="0 0 19 20" fill="none" xmlns="http://www.w3.org/2000/svg">
<path d="M0 15.832V17.5C0 18.8789 3.07943 20 6.875 20C10.6706 20 13.75 18.8789 13.75 17.5V15.832C12.2712 16.9688 9.56771 17.5 6.875 17.5C4.18229 17.5 1.47884 16.9688 0 15.832ZM11.4583 5C15.2539 5 18.3333 3.87891 18.3333 2.5C18.3333 1.12109 15.2539 0 11.4583 0C7.66276 0 4.58333 1.12109 4.58333 2.5C4.58333 3.87891 7.66276 5 11.4583 5ZM0 11.7344V13.75C0 15.1289 3.07943 16.25 6.875 16.25C10.6706 16.25 13.75 15.1289 13.75 13.75V11.7344C12.2712 13.0625 9.56413 13.75 6.875 13.75C4.18587 13.75 1.47884 13.0625 0 11.7344ZM14.8958 12.1641C16.9476 11.7305 18.3333 10.9258 18.3333 10V8.33203C17.5026 8.97266 16.2816 9.41016 14.8958 9.67969V12.1641ZM6.875 6.25C3.07943 6.25 0 7.64844 0 9.375C0 11.1016 3.07943 12.5 6.875 12.5C10.6706 12.5 13.75 11.1016 13.75 9.375C13.75 7.64844 10.6706 6.25 6.875 6.25ZM14.7275 8.44922C16.876 8.02734 18.3333 7.19922 18.3333 6.25V4.58203C17.0622 5.5625 14.8779 6.08984 12.5791 6.21484C13.6354 6.77344 14.4124 7.52344 14.7275 8.44922Z" fill="white"/>
</svg>
