<svg width="17" height="17" viewBox="0 0 17 17" fill="none" xmlns="http://www.w3.org/2000/svg">
<path d="M4.75001 16H2.5C2.10218 16 1.72065 15.842 1.43934 15.5607C1.15804 15.2794 1 14.8979 1 14.5V9.25002C1 8.85219 1.15804 8.47066 1.43934 8.18936C1.72065 7.90805 2.10218 7.75001 2.5 7.75001H4.75001M10 6.25001V3.25C10 2.65327 9.76297 2.08097 9.34101 1.65901C8.91905 1.23705 8.34675 1 7.75001 1L4.75001 7.75001V16H13.21C13.5718 16.0041 13.9228 15.8773 14.1985 15.643C14.4741 15.4087 14.6558 15.0827 14.71 14.725L15.745 7.97502C15.7777 7.76003 15.7632 7.54052 15.7025 7.3317C15.6419 7.12288 15.5366 6.92973 15.3939 6.76565C15.2512 6.60156 15.0746 6.47046 14.8762 6.38142C14.6778 6.29239 14.4625 6.24755 14.245 6.25001H10Z" stroke="white" stroke-width="2" stroke-linecap="round" stroke-linejoin="round"/>
</svg>
