<svg width="76" height="76" viewBox="0 0 76 76" fill="none" xmlns="http://www.w3.org/2000/svg">
<path d="M15.7083 59.1458H60.3958C61.0903 59.1458 61.5764 58.8681 61.8542 58.3125C62.1319 57.7569 62.0625 57.2014 61.6458 56.6458L49.4583 40.3958C49.1111 39.9792 48.6944 39.7708 48.2083 39.7708C47.7222 39.7708 47.3056 39.9792 46.9583 40.3958L34.4583 56.5417L26.0208 44.9792C25.6736 44.5625 25.2569 44.3542 24.7708 44.3542C24.2847 44.3542 23.8681 44.5625 23.5208 44.9792L14.5625 56.6458C14.2153 57.2014 14.1632 57.7569 14.4062 58.3125C14.6493 58.8681 15.0833 59.1458 15.7083 59.1458ZM6.75 75.5C5.08333 75.5 3.625 74.875 2.375 73.625C1.125 72.375 0.5 70.9167 0.5 69.25V6.75C0.5 5.08333 1.125 3.625 2.375 2.375C3.625 1.125 5.08333 0.5 6.75 0.5H69.25C70.9167 0.5 72.375 1.125 73.625 2.375C74.875 3.625 75.5 5.08333 75.5 6.75V69.25C75.5 70.9167 74.875 72.375 73.625 73.625C72.375 74.875 70.9167 75.5 69.25 75.5H6.75Z" fill="#45494C"/>
</svg>
