<svg width="100" height="100" viewBox="0 0 100 100" fill="none" xmlns="http://www.w3.org/2000/svg">
<path d="M4.1665 68.3334C4.1665 65.0001 4.77414 61.8577 5.98942 58.9063C7.2047 55.9549 9.11442 53.3855 11.7186 51.198C14.3228 49.0105 17.6214 47.2744 21.6144 45.9897C25.6075 44.7049 30.3471 44.0626 35.8332 44.0626C41.3887 44.0626 46.1457 44.7049 50.104 45.9897C54.0623 47.2744 57.3436 49.0105 59.9478 51.198C62.5519 53.3855 64.4616 55.9549 65.6769 58.9063C66.8922 61.8577 67.4998 65.0001 67.4998 68.3334H4.1665ZM73.7498 95.8334V67.1876C73.7498 59.132 71.1283 52.5869 65.8853 47.5522C60.6422 42.5174 54.7568 39.3404 48.229 38.0209L46.4582 22.9167H67.8123V4.16675H74.0623V22.9167H95.8332L88.854 89.5834C88.6457 91.389 87.8991 92.882 86.6144 94.0626C85.3297 95.2431 83.7151 95.8334 81.7707 95.8334H73.7498ZM4.1665 82.0834V75.0001H67.4998V82.0834H4.1665ZM7.2915 95.8334C6.45817 95.8334 5.729 95.5209 5.104 94.8959C4.479 94.2709 4.1665 93.5417 4.1665 92.7084V88.7501H67.4998V92.7084C67.4998 93.5417 67.1873 94.2709 66.5623 94.8959C65.9373 95.5209 65.2082 95.8334 64.3748 95.8334H7.2915Z" fill="#45494C"/>
</svg>
