<svg width="26" height="28" viewBox="0 0 26 28" fill="none" xmlns="http://www.w3.org/2000/svg">
<path d="M13.5 15C13.5 13.6739 12.9732 12.4021 12.0355 11.4645C11.0979 10.5268 9.82608 10 8.5 10C7.17392 10 5.90215 10.5268 4.96447 11.4645C4.02678 12.4021 3.5 13.6739 3.5 15C3.5 20.8333 1 22.5 1 22.5H16C16 22.5 13.5 20.8333 13.5 15Z" stroke="white" stroke-width="1.5" stroke-linecap="round" stroke-linejoin="round"/>
<path d="M9.94095 25.8333C9.79444 26.0858 9.58415 26.2955 9.33114 26.4412C9.07812 26.5869 8.79127 26.6636 8.49928 26.6636C8.2073 26.6636 7.92044 26.5869 7.66743 26.4412C7.41441 26.2955 7.20413 26.0858 7.05762 25.8333" stroke="white" stroke-width="1.5" stroke-linecap="round" stroke-linejoin="round"/>
<g filter="url(#filter0_d)">
<circle cx="16" cy="10" r="3" fill="#258CF6"/>
</g>
<defs>
<filter id="filter0_d" x="6" y="0" width="20" height="20" filterUnits="userSpaceOnUse" color-interpolation-filters="sRGB">
<feFlood flood-opacity="0" result="BackgroundImageFix"/>
<feColorMatrix in="SourceAlpha" type="matrix" values="0 0 0 0 0 0 0 0 0 0 0 0 0 0 0 0 0 0 127 0"/>
<feMorphology radius="2" operator="dilate" in="SourceAlpha" result="effect1_dropShadow"/>
<feOffset/>
<feGaussianBlur stdDeviation="2.5"/>
<feColorMatrix type="matrix" values="0 0 0 0 0.145098 0 0 0 0 0.54902 0 0 0 0 0.964706 0 0 0 0.6 0"/>
<feBlend mode="normal" in2="BackgroundImageFix" result="effect1_dropShadow"/>
<feBlend mode="normal" in="SourceGraphic" in2="effect1_dropShadow" result="shape"/>
</filter>
</defs>
</svg>
