<svg width="100" height="100" viewBox="0 0 100 100" fill="none" xmlns="http://www.w3.org/2000/svg">
<path d="M96.0381 46.3262C93.8425 46.3165 92.0763 48.1217 92.0666 50.2685C92.0471 52.4152 93.7938 54.24 95.9893 54.2595C98.1849 54.279 99.9803 52.5518 99.9998 50.3173C100.01 48.0729 98.2336 46.336 96.0381 46.3262Z" fill="#56BFDB"/>
<path d="M95.4336 58.3662C93.3161 57.7905 91.1401 59.0785 90.5838 61.1472C90.0081 63.2061 91.2279 65.431 93.3356 66.0165C95.4433 66.602 97.6291 65.4017 98.2341 63.2452C98.8099 61.0789 97.5413 58.9419 95.4336 58.3662Z" fill="#56BFDB"/>
<path d="M91.7153 69.8414C89.8222 68.7388 87.3827 69.4121 86.3093 71.2661C85.2164 73.1104 85.8117 75.5694 87.7048 76.6818C89.5881 77.7942 92.008 77.2087 93.1497 75.2766C94.2816 73.3445 93.6084 70.9441 91.7153 69.8414Z" fill="#56BFDB"/>
<path d="M79.5573 79.9305C78.0253 81.4332 77.9667 83.9606 79.5085 85.5219C81.0503 87.0832 83.5288 87.1417 85.1389 85.5707C86.7294 83.9899 86.7001 81.5016 85.1584 79.9403C83.6166 78.3985 81.0795 78.418 79.5573 79.9305Z" fill="#56BFDB"/>
<path d="M70.8041 86.5746C68.9403 87.6285 68.228 90.0582 69.3111 91.961C70.3942 93.8638 72.7849 94.5665 74.7365 93.4638C76.6784 92.3416 77.2931 89.9314 76.21 88.0286C75.1171 86.1355 72.6581 85.5012 70.8041 86.5746Z" fill="#56BFDB"/>
<path d="M60.6363 90.7112C58.5578 91.2382 57.2405 93.4044 57.787 95.5317C58.3334 97.6492 60.4607 98.947 62.627 98.3908C64.7932 97.815 66.0129 95.6487 65.4567 93.5312C64.9201 91.4137 62.705 90.1648 60.6363 90.7112Z" fill="#56BFDB"/>
<path d="M49.7373 92.0675C47.5905 92.048 45.7658 93.7947 45.7463 95.9903C45.7267 98.1858 47.4539 99.9813 49.6885 100.001C51.9328 100.001 53.6698 98.2248 53.6795 96.0391C53.6893 93.8435 51.884 92.0675 49.7373 92.0675Z" fill="#56BFDB"/>
<path d="M38.8569 90.5741C36.798 89.9984 34.5732 91.2181 33.9877 93.3258C33.4022 95.4336 34.6024 97.6193 36.759 98.2243C38.9252 98.8098 41.0622 97.5413 41.638 95.4238C42.2137 93.3161 40.9159 91.1303 38.8569 90.5741Z" fill="#56BFDB"/>
<path d="M28.738 86.3113C26.8938 85.2184 24.4347 85.8136 23.3223 87.7067C22.2099 89.59 22.7954 92.01 24.7275 93.1517C26.6693 94.2738 29.0601 93.6103 30.1725 91.7172C31.2654 89.8242 30.5921 87.3847 28.738 86.3113Z" fill="#56BFDB"/>
<path d="M14.4718 79.5113C12.9105 81.053 12.852 83.5316 14.423 85.1416C16.0038 86.7322 18.4921 86.7029 20.0534 85.1612C21.6147 83.6194 21.5854 81.0823 20.0729 79.5698C18.5702 78.028 16.0331 77.9695 14.4718 79.5113Z" fill="#56BFDB"/>
<path d="M13.4276 70.807C12.3738 68.9432 9.94404 68.2309 8.04123 69.314C6.13842 70.3972 5.43584 72.7879 6.53849 74.7395C7.66066 76.6813 10.0709 77.296 11.9737 76.2129C13.8668 75.12 14.4913 72.661 13.4276 70.807Z" fill="#56BFDB"/>
<path d="M9.28989 60.6412C8.76296 58.5628 6.59668 57.2454 4.46944 57.7918C2.35195 58.3383 1.05411 60.4656 1.61032 62.6318C2.18604 64.7981 4.35233 66.0179 6.46981 65.4617C8.5873 64.9152 9.83634 62.7099 9.28989 60.6412Z" fill="#56BFDB"/>
<path d="M7.93326 49.7421C7.95277 47.5954 6.2061 45.7707 4.01055 45.7511C1.815 45.7316 0.019516 47.4588 0 49.6934C0 51.9377 1.77595 53.6746 3.96174 53.6844C6.14754 53.6942 7.9235 51.8791 7.93326 49.7421Z" fill="#56BFDB"/>
<path d="M4.5664 41.6438C6.68389 42.2195 8.85989 40.9315 9.4161 38.8628C9.99182 36.8039 8.77209 34.579 6.66437 33.9936C4.55664 33.4081 2.37083 34.6083 1.76583 36.7648C1.19011 38.9213 2.45867 41.0583 4.5664 41.6438Z" fill="#56BFDB"/>
<path d="M8.28514 30.1705C10.1782 31.2731 12.6177 30.5998 13.6911 28.7458C14.7839 26.9016 14.1887 24.4426 12.2957 23.3301C10.4124 22.2177 7.9924 22.8032 6.85072 24.7353C5.71879 26.6674 6.39209 29.058 8.28514 30.1705Z" fill="#56BFDB"/>
<path d="M14.8611 14.4316C13.2706 16.0124 13.2999 18.5007 14.8416 20.062C16.3834 21.6232 18.9205 21.594 20.4329 20.0815C21.9649 18.5788 22.0235 16.0515 20.4817 14.4902C18.9497 12.9191 16.4614 12.8606 14.8611 14.4316Z" fill="#56BFDB"/>
<path d="M25.2642 6.53622C23.3223 7.65839 22.7076 10.0686 23.7907 11.9714C24.8738 13.8742 27.3329 14.4987 29.1869 13.4351C31.0506 12.3813 31.763 9.9515 30.6798 8.04869C29.6065 6.13613 27.2158 5.43356 25.2642 6.53622Z" fill="#56BFDB"/>
<path d="M37.3632 1.61C35.197 2.18572 33.9772 4.35197 34.5334 6.46946C35.0896 8.58695 37.2949 9.83598 39.3636 9.28954C41.4421 8.7626 42.7594 6.59633 42.213 4.46908C41.6568 2.3516 39.5295 1.06355 37.3632 1.61Z" fill="#56BFDB"/>
<path d="M50.3123 0C48.068 0 46.3311 1.77595 46.3213 3.96174C46.3116 6.15729 48.1168 7.9235 50.2636 7.93326C52.4103 7.95277 54.2351 6.20607 54.2546 4.01052C54.2741 1.82473 52.5469 0.029274 50.3123 0Z" fill="#56BFDB"/>
<path d="M63.2423 1.77669C61.076 1.19121 58.939 2.45975 58.3633 4.57723C57.7875 6.69472 59.0756 8.87078 61.1443 9.42699C63.2032 10.0027 65.428 8.78295 66.0135 6.67522C66.599 4.55774 65.4085 2.38169 63.2423 1.77669Z" fill="#56BFDB"/>
<path d="M75.2834 6.84932C73.3416 5.72715 70.9509 6.39066 69.8385 8.28371C68.7358 10.1768 69.4091 12.6163 71.2631 13.6897C73.1074 14.7826 75.5664 14.1873 76.6788 12.2943C77.7912 10.411 77.2057 8.00076 75.2834 6.84932Z" fill="#56BFDB"/>
<path d="M85.5291 20.5003C87.0904 18.9585 87.149 16.48 85.5779 14.8699C83.9971 13.2794 81.5089 13.3087 79.9476 14.8504C78.3863 16.3922 78.4156 18.9293 79.9281 20.4417C81.4308 21.9738 83.9679 22.0323 85.5291 20.5003Z" fill="#56BFDB"/>
<path d="M86.5732 29.2034C87.6271 31.0672 90.0568 31.7796 91.9596 30.6964C93.8624 29.6133 94.565 27.2226 93.4624 25.271C92.3402 23.3292 89.9299 22.7144 88.0271 23.7975C86.1341 24.8904 85.5096 27.3397 86.5732 29.2034Z" fill="#56BFDB"/>
<path d="M90.7102 39.3607C91.2372 41.4392 93.4034 42.7565 95.5307 42.21C97.6482 41.6636 98.946 39.5363 98.3898 37.3701C97.8141 35.2038 95.6478 33.9841 93.5303 34.5403C91.4128 35.0867 90.1638 37.292 90.7102 39.3607Z" fill="#56BFDB"/>
<path d="M45.5 31C45.075 31 44.7188 30.8554 44.4313 30.5662C44.1438 30.277 44 29.9187 44 29.4912C44 29.0637 44.1438 28.7083 44.4313 28.425C44.7188 28.1417 45.075 28 45.5 28H54.5C54.925 28 55.2812 28.1446 55.5688 28.4338C55.8563 28.723 56 29.0813 56 29.5088C56 29.9363 55.8563 30.2917 55.5688 30.575C55.2812 30.8583 54.925 31 54.5 31H45.5ZM50.0087 53.35C50.4362 53.35 50.7917 53.2063 51.075 52.9188C51.3583 52.6313 51.5 52.275 51.5 51.85V43.35C51.5 42.925 51.3554 42.5688 51.0663 42.2812C50.7771 41.9938 50.4187 41.85 49.9913 41.85C49.5638 41.85 49.2083 41.9938 48.925 42.2812C48.6417 42.5688 48.5 42.925 48.5 43.35V51.85C48.5 52.275 48.6446 52.6313 48.9338 52.9188C49.2229 53.2063 49.5813 53.35 50.0087 53.35ZM50 69.95C47.5333 69.95 45.2083 69.475 43.025 68.525C40.8417 67.575 38.9333 66.2833 37.3 64.65C35.6667 63.0167 34.375 61.1083 33.425 58.925C32.475 56.7417 32 54.4167 32 51.95C32 49.4833 32.475 47.1583 33.425 44.975C34.375 42.7917 35.6667 40.8833 37.3 39.25C38.9333 37.6167 40.8417 36.325 43.025 35.375C45.2083 34.425 47.5333 33.95 50 33.95C52.2333 33.95 54.325 34.3167 56.275 35.05C58.225 35.7833 59.9667 36.8167 61.5 38.15L63 36.65C63.3 36.35 63.6536 36.2 64.0609 36.2C64.4682 36.2 64.8245 36.3544 65.13 36.6631C65.41 36.9462 65.55 37.3064 65.55 37.7439C65.55 38.1813 65.4167 38.5333 65.15 38.8L63.65 40.3C64.85 41.6333 65.875 43.25 66.725 45.15C67.575 47.05 68 49.3167 68 51.95C68 54.4167 67.525 56.7417 66.575 58.925C65.625 61.1083 64.3333 63.0167 62.7 64.65C61.0667 66.2833 59.1583 67.575 56.975 68.525C54.7917 69.475 52.4667 69.95 50 69.95Z" fill="#56BFDB" fill-opacity="0.2"/>
</svg>
