<svg width="222" height="151" viewBox="0 0 222 151" fill="none" xmlns="http://www.w3.org/2000/svg">
<path d="M111.001 7V1" stroke="#56BFDB" stroke-width="2" stroke-linecap="round" stroke-linejoin="round"/>
<path d="M151.889 80L157.085 83" stroke="#56BFDB" stroke-width="2" stroke-linecap="round" stroke-linejoin="round"/>
<path d="M116.001 3.98858L116.262 1" stroke="#56BFDB" stroke-width="1.5" stroke-linecap="round" stroke-linejoin="round"/>
<path d="M151.997 85.8359L154.455 87.5566" stroke="#56BFDB" stroke-width="1.5" stroke-linecap="round" stroke-linejoin="round"/>
<path d="M141.001 13.4575L142.722 11" stroke="#56BFDB" stroke-width="1.5" stroke-linecap="round" stroke-linejoin="round"/>
<path d="M131.297 102.752L132.565 105.471" stroke="#56BFDB" stroke-width="1.5" stroke-linecap="round" stroke-linejoin="round"/>
<path d="M158.001 34.2679L160.72 33" stroke="#56BFDB" stroke-width="1.5" stroke-linecap="round" stroke-linejoin="round"/>
<path d="M161.899 61.0003L164.887 61.2617" stroke="#56BFDB" stroke-width="1.5" stroke-linecap="round" stroke-linejoin="round"/>
<path d="M126.001 6.89778L126.777 4" stroke="#56BFDB" stroke-width="1.5" stroke-linecap="round" stroke-linejoin="round"/>
<path d="M144.478 93.0418L146.599 95.1631" stroke="#56BFDB" stroke-width="1.5" stroke-linecap="round" stroke-linejoin="round"/>
<path d="M148.207 20.9768L150.328 18.8555" stroke="#56BFDB" stroke-width="1.5" stroke-linecap="round" stroke-linejoin="round"/>
<path d="M121.182 105.233L121.958 108.13" stroke="#56BFDB" stroke-width="1.5" stroke-linecap="round" stroke-linejoin="round"/>
<path d="M160.482 44.3829L163.379 43.6064" stroke="#56BFDB" stroke-width="1.5" stroke-linecap="round" stroke-linejoin="round"/>
<path d="M158.989 71.0004L161.887 71.7769" stroke="#56BFDB" stroke-width="1.5" stroke-linecap="round" stroke-linejoin="round"/>
<path d="M121.001 4.95442L121.522 2" stroke="#56BFDB" stroke-width="1.5" stroke-linecap="round" stroke-linejoin="round"/>
<path d="M148.661 89.683L150.959 91.6113" stroke="#56BFDB" stroke-width="1.5" stroke-linecap="round" stroke-linejoin="round"/>
<path d="M144.848 16.7942L146.777 14.4961" stroke="#56BFDB" stroke-width="1.5" stroke-linecap="round" stroke-linejoin="round"/>
<path d="M126.484 104.416L127.51 107.235" stroke="#56BFDB" stroke-width="1.5" stroke-linecap="round" stroke-linejoin="round"/>
<path d="M159.664 39.0812L162.483 38.0552" stroke="#56BFDB" stroke-width="1.5" stroke-linecap="round" stroke-linejoin="round"/>
<path d="M160.933 66.0005L163.887 66.5215" stroke="#56BFDB" stroke-width="1.5" stroke-linecap="round" stroke-linejoin="round"/>
<path d="M130.748 8.88646L131.774 6.06738" stroke="#56BFDB" stroke-width="1.5" stroke-linecap="round" stroke-linejoin="round"/>
<path d="M140.382 96.1584L142.31 98.4565" stroke="#56BFDB" stroke-width="1.5" stroke-linecap="round" stroke-linejoin="round"/>
<path d="M151.324 25.0729L153.622 23.1445" stroke="#56BFDB" stroke-width="1.5" stroke-linecap="round" stroke-linejoin="round"/>
<path d="M116.076 105.884L116.597 108.839" stroke="#56BFDB" stroke-width="1.5" stroke-linecap="round" stroke-linejoin="round"/>
<path d="M161.133 49.4887L164.087 48.9678" stroke="#56BFDB" stroke-width="1.5" stroke-linecap="round" stroke-linejoin="round"/>
<path d="M157.001 75.7479L159.82 76.7739" stroke="#56BFDB" stroke-width="1.5" stroke-linecap="round" stroke-linejoin="round"/>
<path d="M135.001 13.1962L138.001 8" stroke="#56BFDB" stroke-width="2" stroke-linecap="round" stroke-linejoin="round"/>
<path d="M134.523 97.6867L137.523 102.883" stroke="#56BFDB" stroke-width="2" stroke-linecap="round" stroke-linejoin="round"/>
<path d="M152.001 31L157.197 28" stroke="#56BFDB" stroke-width="2" stroke-linecap="round" stroke-linejoin="round"/>
<path d="M110.604 103.507L110.604 109.507" stroke="#56BFDB" stroke-width="2" stroke-linecap="round" stroke-linejoin="round"/>
<path d="M159.001 55H165.001" stroke="#56BFDB" stroke-width="2" stroke-linecap="round" stroke-linejoin="round"/>
<g opacity="0.2">
<path d="M70.1127 29.8389L64.9165 26.8389" stroke="#56BFDB" stroke-width="2" stroke-linecap="round" stroke-linejoin="round"/>
<path d="M106.001 105.85L105.74 108.839" stroke="#56BFDB" stroke-width="1.5" stroke-linecap="round" stroke-linejoin="round"/>
<path d="M70.0048 24.003L67.5474 22.2822" stroke="#56BFDB" stroke-width="1.5" stroke-linecap="round" stroke-linejoin="round"/>
<path d="M81.001 96.3814L79.2803 98.8389" stroke="#56BFDB" stroke-width="1.5" stroke-linecap="round" stroke-linejoin="round"/>
<path d="M90.7049 7.0866L89.437 4.36768" stroke="#56BFDB" stroke-width="1.5" stroke-linecap="round" stroke-linejoin="round"/>
<path d="M64.0012 75.571L61.2822 76.8389" stroke="#56BFDB" stroke-width="1.5" stroke-linecap="round" stroke-linejoin="round"/>
<path d="M60.1033 48.8386L57.1147 48.5771" stroke="#56BFDB" stroke-width="1.5" stroke-linecap="round" stroke-linejoin="round"/>
<path d="M96.0011 102.941L95.2246 105.839" stroke="#56BFDB" stroke-width="1.5" stroke-linecap="round" stroke-linejoin="round"/>
<path d="M77.5242 16.7971L75.4028 14.6758" stroke="#56BFDB" stroke-width="1.5" stroke-linecap="round" stroke-linejoin="round"/>
<path d="M73.7951 88.8616L71.6738 90.9829" stroke="#56BFDB" stroke-width="1.5" stroke-linecap="round" stroke-linejoin="round"/>
<path d="M100.82 4.60579L100.043 1.70801" stroke="#56BFDB" stroke-width="1.5" stroke-linecap="round" stroke-linejoin="round"/>
<path d="M61.5203 65.4555L58.6226 66.2319" stroke="#56BFDB" stroke-width="1.5" stroke-linecap="round" stroke-linejoin="round"/>
<path d="M63.0125 38.8385L60.1147 38.062" stroke="#56BFDB" stroke-width="1.5" stroke-linecap="round" stroke-linejoin="round"/>
<path d="M101.001 104.884L100.48 107.839" stroke="#56BFDB" stroke-width="1.5" stroke-linecap="round" stroke-linejoin="round"/>
<path d="M73.3411 20.1554L71.043 18.2271" stroke="#56BFDB" stroke-width="1.5" stroke-linecap="round" stroke-linejoin="round"/>
<path d="M77.1535 93.0446L75.2251 95.3428" stroke="#56BFDB" stroke-width="1.5" stroke-linecap="round" stroke-linejoin="round"/>
<path d="M95.5182 5.42259L94.4922 2.60352" stroke="#56BFDB" stroke-width="1.5" stroke-linecap="round" stroke-linejoin="round"/>
<path d="M62.3376 70.7576L59.5186 71.7837" stroke="#56BFDB" stroke-width="1.5" stroke-linecap="round" stroke-linejoin="round"/>
<path d="M61.0692 43.8383L58.1147 43.3174" stroke="#56BFDB" stroke-width="1.5" stroke-linecap="round" stroke-linejoin="round"/>
<path d="M91.2536 100.952L90.2275 103.771" stroke="#56BFDB" stroke-width="1.5" stroke-linecap="round" stroke-linejoin="round"/>
<path d="M81.6203 13.68L79.6919 11.3818" stroke="#56BFDB" stroke-width="1.5" stroke-linecap="round" stroke-linejoin="round"/>
<path d="M70.678 84.7655L68.3799 86.6938" stroke="#56BFDB" stroke-width="1.5" stroke-linecap="round" stroke-linejoin="round"/>
<path d="M105.926 3.95442L105.405 1" stroke="#56BFDB" stroke-width="1.5" stroke-linecap="round" stroke-linejoin="round"/>
<path d="M60.869 60.3497L57.9146 60.8706" stroke="#56BFDB" stroke-width="1.5" stroke-linecap="round" stroke-linejoin="round"/>
<path d="M65.0012 34.091L62.1821 33.0649" stroke="#56BFDB" stroke-width="1.5" stroke-linecap="round" stroke-linejoin="round"/>
<path d="M87.001 96.6427L84.001 101.839" stroke="#56BFDB" stroke-width="2" stroke-linecap="round" stroke-linejoin="round"/>
<path d="M87.4785 12.1522L84.4785 6.95605" stroke="#56BFDB" stroke-width="2" stroke-linecap="round" stroke-linejoin="round"/>
<path d="M70.0008 78.8389L64.8047 81.8389" stroke="#56BFDB" stroke-width="2" stroke-linecap="round" stroke-linejoin="round"/>
<path d="M63.001 54.8389L57.001 54.8389" stroke="#56BFDB" stroke-width="2" stroke-linecap="round" stroke-linejoin="round"/>
</g>
<g opacity="0.2">
<path d="M44.5 135L42 139.331" stroke="#56BFDB" stroke-width="1.5" stroke-linecap="round" stroke-linejoin="round"/>
<path d="M51.1131 139L49 143.532" stroke="#56BFDB" stroke-width="1.5" stroke-linecap="round" stroke-linejoin="round"/>
<path d="M57.7101 144L56 148.699" stroke="#56BFDB" stroke-width="1.5" stroke-linecap="round" stroke-linejoin="round"/>
<path d="M9.53154 89.0002L5 91.1133" stroke="#56BFDB" stroke-width="1.5" stroke-linecap="round" stroke-linejoin="round"/>
<path d="M26.5355 117.001L23 120.536" stroke="#56BFDB" stroke-width="1.5" stroke-linecap="round" stroke-linejoin="round"/>
<path d="M32.2139 124L29 127.831" stroke="#56BFDB" stroke-width="1.5" stroke-linecap="round" stroke-linejoin="round"/>
<path d="M37.8679 129L35 133.096" stroke="#56BFDB" stroke-width="1.5" stroke-linecap="round" stroke-linejoin="round"/>
<path d="M4.69846 82.0003L0 83.7104" stroke="#56BFDB" stroke-width="1.5" stroke-linecap="round" stroke-linejoin="round"/>
<path d="M21.8302 110L18 113.214" stroke="#56BFDB" stroke-width="1.5" stroke-linecap="round" stroke-linejoin="round"/>
<path d="M14.3301 96.0005L10 98.5005" stroke="#56BFDB" stroke-width="1.5" stroke-linecap="round" stroke-linejoin="round"/>
<path d="M17.2129 102.817L13.1172 105.685" stroke="#56BFDB" stroke-width="1.5" stroke-linecap="round" stroke-linejoin="round"/>
<path d="M210.559 95.6285L215.294 97.2358" stroke="#56BFDB" stroke-width="1.5" stroke-linecap="round" stroke-linejoin="round"/>
<path d="M213.193 88.3622L218.049 89.5508" stroke="#56BFDB" stroke-width="1.5" stroke-linecap="round" stroke-linejoin="round"/>
<path d="M216.81 80.9165L221.752 81.6772" stroke="#56BFDB" stroke-width="1.5" stroke-linecap="round" stroke-linejoin="round"/>
<path d="M172.264 138.898L175.22 142.93" stroke="#56BFDB" stroke-width="1.5" stroke-linecap="round" stroke-linejoin="round"/>
<path d="M196.41 116.759L200.567 119.537" stroke="#56BFDB" stroke-width="1.5" stroke-linecap="round" stroke-linejoin="round"/>
<path d="M202.167 109.824L206.551 112.229" stroke="#56BFDB" stroke-width="1.5" stroke-linecap="round" stroke-linejoin="round"/>
<path d="M205.968 103.303L210.545 105.317" stroke="#56BFDB" stroke-width="1.5" stroke-linecap="round" stroke-linejoin="round"/>
<path d="M166.341 145.004L168.935 149.278" stroke="#56BFDB" stroke-width="1.5" stroke-linecap="round" stroke-linejoin="round"/>
<path d="M190 123L193.899 126.13" stroke="#56BFDB" stroke-width="1.5" stroke-linecap="round" stroke-linejoin="round"/>
<path d="M178.194 132.826L181.49 136.585" stroke="#56BFDB" stroke-width="1.5" stroke-linecap="round" stroke-linejoin="round"/>
<path d="M184.317 128.669L187.928 132.127" stroke="#56BFDB" stroke-width="1.5" stroke-linecap="round" stroke-linejoin="round"/>
</g>
<g opacity="0.2">
<path d="M106.251 38C105.561 38 105.001 38.5596 105.001 39.25C105.001 39.9404 105.561 40.5 106.251 40.5H115.751C116.441 40.5 117.001 39.9404 117.001 39.25C117.001 38.5596 116.441 38 115.751 38H106.251ZM94.001 60C94.001 50.6112 101.612 43 111.001 43C120.39 43 128.001 50.6112 128.001 60C128.001 69.3888 120.39 77 111.001 77C101.612 77 94.001 69.3888 94.001 60ZM109.751 59.75C109.751 60.4404 110.311 61 111.001 61C111.691 61 112.251 60.4404 112.251 59.75V50.25C112.251 49.5596 111.691 49 111.001 49C110.311 49 109.751 49.5596 109.751 50.25V59.75ZM123.367 43.3661C123.855 42.878 124.647 42.878 125.135 43.3661L127.635 45.8661C128.123 46.3543 128.123 47.1457 127.635 47.6339C127.147 48.122 126.355 48.122 125.867 47.6339L123.367 45.1339C122.879 44.6457 122.879 43.8543 123.367 43.3661Z" fill="#56BFDB"/>
</g>
</svg>
