<svg width="17" height="17" viewBox="0 0 17 17" fill="none" xmlns="http://www.w3.org/2000/svg">
<path d="M16.7248 0.636547C16.7036 0.537217 16.6541 0.44616 16.5824 0.374322C16.5108 0.302484 16.4199 0.252922 16.3208 0.231594C15.2544 0.00256348 14.4201 0.00256348 13.5888 0.00256348C10.1709 0.00256348 8.12085 1.83481 6.59109 4.25125H3.14009C2.84536 4.2515 2.55651 4.33386 2.30579 4.48913C2.05507 4.6444 1.85235 4.86646 1.72027 5.13053L0.0835329 8.40998C0.0230882 8.53146 -0.00537752 8.66642 0.000837212 8.80202C0.00705194 8.93763 0.047741 9.0694 0.119043 9.18482C0.190344 9.30024 0.289893 9.39549 0.408241 9.46152C0.526589 9.52755 0.65981 9.56217 0.79526 9.5621H4.23202L3.48784 10.3079C3.28913 10.5071 3.17751 10.7773 3.17751 11.0589C3.17751 11.3406 3.28913 11.6107 3.48784 11.8099L5.17359 13.4998C5.27201 13.5984 5.38885 13.6767 5.51745 13.7301C5.64605 13.7835 5.78388 13.811 5.92308 13.811C6.06227 13.811 6.20011 13.7835 6.3287 13.7301C6.4573 13.6767 6.57414 13.5984 6.67256 13.4998L7.41674 12.7539V16.2007C7.4167 16.3364 7.45125 16.4698 7.51712 16.5884C7.58298 16.707 7.67798 16.8067 7.7931 16.8782C7.90821 16.9496 8.03963 16.9904 8.17489 16.9967C8.31015 17.003 8.44477 16.9745 8.56597 16.914L11.8348 15.2746C12.0987 15.1425 12.3207 14.9392 12.4757 14.6877C12.6307 14.4361 12.7127 14.1463 12.7125 13.8506V10.385C15.1166 8.84812 16.9517 6.78685 16.9517 3.37828C16.955 2.54182 16.955 1.70536 16.7248 0.636547ZM12.7158 5.57896C12.4538 5.57896 12.1976 5.50109 11.9798 5.3552C11.7619 5.20931 11.5921 5.00195 11.4919 4.75934C11.3916 4.51673 11.3654 4.24977 11.4165 3.99222C11.4676 3.73467 11.5938 3.4981 11.779 3.31241C11.9643 3.12673 12.2004 3.00028 12.4573 2.94905C12.7143 2.89781 12.9807 2.92411 13.2227 3.0246C13.4648 3.12509 13.6717 3.29527 13.8173 3.51361C13.9628 3.73195 14.0405 3.98865 14.0405 4.25125C14.0405 4.60338 13.901 4.94109 13.6525 5.19008C13.4041 5.43908 13.0671 5.57896 12.7158 5.57896Z" fill="#F1F3F5" fill-opacity="0.95"/>
</svg>
