<svg width="19" height="19" viewBox="0 0 19 19" fill="none" xmlns="http://www.w3.org/2000/svg">
<path d="M12.2708 11.0833H11.6454L11.4238 10.8696C12.1996 9.96708 12.6667 8.79542 12.6667 7.52083C12.6667 4.67875 10.3629 2.375 7.52083 2.375C4.67875 2.375 2.375 4.67875 2.375 7.52083C2.375 10.3629 4.67875 12.6667 7.52083 12.6667C8.79542 12.6667 9.96708 12.1996 10.8696 11.4238L11.0833 11.6454V12.2708L15.0417 16.2213L16.2213 15.0417L12.2708 11.0833ZM7.52083 11.0833C5.54958 11.0833 3.95833 9.49208 3.95833 7.52083C3.95833 5.54958 5.54958 3.95833 7.52083 3.95833C9.49208 3.95833 11.0833 5.54958 11.0833 7.52083C11.0833 9.49208 9.49208 11.0833 7.52083 11.0833Z" fill="white" fill-opacity="0.6"/>
</svg>
