<svg width="22" height="23" viewBox="0 0 22 23" fill="none" xmlns="http://www.w3.org/2000/svg">
<path d="M6.66504 17.8591C5.47302 17.8591 4.50856 18.8344 4.50856 20.0264C4.50856 21.2184 5.47302 22.1937 6.66504 22.1937C7.85707 22.1937 8.83236 21.2184 8.83236 20.0264C8.83236 18.8344 7.85707 17.8591 6.66504 17.8591ZM0.163086 0.520508V2.68783H2.3304L6.23158 10.9128L4.76864 13.5678C4.59525 13.8712 4.49772 14.2288 4.49772 14.6081C4.49772 15.8001 5.47302 16.7754 6.66504 16.7754H19.669V14.6081H7.12018C6.96847 14.6081 6.84926 14.4889 6.84926 14.3372L6.88177 14.2071L7.85707 12.4408H15.9303C16.7431 12.4408 17.4583 11.9965 17.8267 11.3246L21.7062 4.29164C21.7929 4.13993 21.8363 3.95571 21.8363 3.77149C21.8363 3.17547 21.3486 2.68783 20.7526 2.68783H4.72529L3.70665 0.520508H0.163086ZM17.5016 17.8591C16.3096 17.8591 15.3452 18.8344 15.3452 20.0264C15.3452 21.2184 16.3096 22.1937 17.5016 22.1937C18.6937 22.1937 19.669 21.2184 19.669 20.0264C19.669 18.8344 18.6937 17.8591 17.5016 17.8591Z" fill="#C2C8D3" fill-opacity="0.3"/>
</svg>
