<svg width="15" height="15" viewBox="0 0 15 15" fill="none" xmlns="http://www.w3.org/2000/svg">
<path d="M10.2708 9.08333H9.64542L9.42375 8.86958C10.1996 7.96708 10.6667 6.79542 10.6667 5.52083C10.6667 2.67875 8.36292 0.375 5.52083 0.375C2.67875 0.375 0.375 2.67875 0.375 5.52083C0.375 8.36292 2.67875 10.6667 5.52083 10.6667C6.79542 10.6667 7.96708 10.1996 8.86958 9.42375L9.08333 9.64542V10.2708L13.0417 14.2213L14.2213 13.0417L10.2708 9.08333ZM5.52083 9.08333C3.54958 9.08333 1.95833 7.49208 1.95833 5.52083C1.95833 3.54958 3.54958 1.95833 5.52083 1.95833C7.49208 1.95833 9.08333 3.54958 9.08333 5.52083C9.08333 7.49208 7.49208 9.08333 5.52083 9.08333Z" fill="white" fill-opacity="0.6"/>
</svg>
